<svg xmlns="http://www.w3.org/2000/svg" viewBox="0 0 920 460" role="img" aria-label="Data sources diagram">
  <defs>
    <linearGradient id="acc" x1="0" y1="0" x2="1" y2="1">
      <stop offset="0" stop-color="#7c5cff" stop-opacity="0.95" />
      <stop offset="1" stop-color="#24d6a7" stop-opacity="0.95" />
    </linearGradient>
  </defs>

  <rect x="0" y="0" width="920" height="460" rx="22" fill="rgba(0,0,0,0.18)" stroke="rgba(255,255,255,0.12)" />

  <text x="34" y="54" font-family="ui-sans-serif, system-ui" font-size="18" fill="rgba(255,255,255,0.86)">Integrated data streams</text>
  <text x="34" y="80" font-family="ui-sans-serif, system-ui" font-size="14" fill="rgba(255,255,255,0.62)">Each stream captures different aspects of psychological state</text>

  <g transform="translate(34 120)">
    <g>
      <rect x="0" y="0" width="250" height="260" rx="18" fill="rgba(255,255,255,0.05)" stroke="rgba(255,255,255,0.12)" />
      <circle cx="52" cy="62" r="26" fill="rgba(124,92,255,0.22)" stroke="rgba(124,92,255,0.50)" />
      <path d="M40 62h24M40 54h18M40 70h14" stroke="rgba(255,255,255,0.86)" stroke-width="2.4" stroke-linecap="round" />
      <text x="92" y="56" font-family="ui-sans-serif, system-ui" font-size="16" fill="rgba(255,255,255,0.86)">Social media text</text>
      <text x="92" y="78" font-family="ui-sans-serif, system-ui" font-size="13" fill="rgba(255,255,255,0.62)">Captions • posts • comments</text>

      <text x="22" y="130" font-family="ui-sans-serif, system-ui" font-size="13" fill="rgba(255,255,255,0.72)">Signals</text>
      <text x="22" y="156" font-family="ui-sans-serif, system-ui" font-size="13" fill="rgba(255,255,255,0.62)">• sentiment & emotion</text>
      <text x="22" y="182" font-family="ui-sans-serif, system-ui" font-size="13" fill="rgba(255,255,255,0.62)">• pronoun patterns</text>
      <text x="22" y="208" font-family="ui-sans-serif, system-ui" font-size="13" fill="rgba(255,255,255,0.62)">• linguistic markers</text>
    </g>

    <g transform="translate(300 0)">
      <rect x="0" y="0" width="250" height="260" rx="18" fill="rgba(255,255,255,0.05)" stroke="rgba(255,255,255,0.12)" />
      <circle cx="52" cy="62" r="26" fill="rgba(36,214,167,0.18)" stroke="rgba(36,214,167,0.55)" />
      <path d="M38 52h28v20H38z" fill="none" stroke="rgba(255,255,255,0.86)" stroke-width="2.4" rx="4" />
      <path d="M42 70l8-8 7 7 7-6" fill="none" stroke="rgba(255,255,255,0.86)" stroke-width="2.4" stroke-linecap="round" />
      <text x="92" y="56" font-family="ui-sans-serif, system-ui" font-size="16" fill="rgba(255,255,255,0.86)">Images</text>
      <text x="92" y="78" font-family="ui-sans-serif, system-ui" font-size="13" fill="rgba(255,255,255,0.62)">Facial expressions</text>

      <text x="22" y="130" font-family="ui-sans-serif, system-ui" font-size="13" fill="rgba(255,255,255,0.72)">Signals</text>
      <text x="22" y="156" font-family="ui-sans-serif, system-ui" font-size="13" fill="rgba(255,255,255,0.62)">• emotion cues</text>
      <text x="22" y="182" font-family="ui-sans-serif, system-ui" font-size="13" fill="rgba(255,255,255,0.62)">• engagement context</text>
      <text x="22" y="208" font-family="ui-sans-serif, system-ui" font-size="13" fill="rgba(255,255,255,0.62)">• visual indicators</text>
    </g>

    <g transform="translate(600 0)">
      <rect x="0" y="0" width="250" height="260" rx="18" fill="rgba(255,255,255,0.05)" stroke="rgba(255,255,255,0.12)" />
      <circle cx="52" cy="62" r="26" fill="rgba(255,204,102,0.14)" stroke="rgba(255,204,102,0.55)" />
      <path d="M36 74c10-14 20 14 30 0" fill="none" stroke="rgba(255,255,255,0.86)" stroke-width="2.4" stroke-linecap="round" />
      <path d="M36 50h30" stroke="rgba(255,255,255,0.86)" stroke-width="2.4" stroke-linecap="round" />
      <text x="92" y="56" font-family="ui-sans-serif, system-ui" font-size="16" fill="rgba(255,255,255,0.86)">Survey data</text>
      <text x="92" y="78" font-family="ui-sans-serif, system-ui" font-size="13" fill="rgba(255,255,255,0.62)">Sleep • mood • stress</text>

      <text x="22" y="130" font-family="ui-sans-serif, system-ui" font-size="13" fill="rgba(255,255,255,0.72)">Signals</text>
      <text x="22" y="156" font-family="ui-sans-serif, system-ui" font-size="13" fill="rgba(255,255,255,0.62)">• longitudinal trends</text>
      <text x="22" y="182" font-family="ui-sans-serif, system-ui" font-size="13" fill="rgba(255,255,255,0.62)">• behavioral patterns</text>
      <text x="22" y="208" font-family="ui-sans-serif, system-ui" font-size="13" fill="rgba(255,255,255,0.62)">• self-reported state</text>
    </g>
  </g>

  <path d="M460 404c-70 0-124-14-170-38" fill="none" stroke="rgba(255,255,255,0.20)" stroke-width="3" stroke-linecap="round" />
  <path d="M460 404c70 0 124-14 170-38" fill="none" stroke="rgba(255,255,255,0.20)" stroke-width="3" stroke-linecap="round" />
  <circle cx="460" cy="404" r="7" fill="url(#acc)" />
  <text x="476" y="410" font-family="ui-sans-serif, system-ui" font-size="13" fill="rgba(255,255,255,0.72)">Fusion-ready representation</text>
</svg>
